<svg width="377" height="484" viewBox="0 0 377 484" fill="none" xmlns="http://www.w3.org/2000/svg">
<path d="M174.193 0.585353C116.021 8.0694 102.612 47.9277 103.179 66.9213C108.565 75.0006 117.731 95.189 106.156 106.468C89.5719 122.627 141.45 112.847 166.538 115.823C185.249 115.823 192.052 125.603 174.193 140.061C156.333 154.519 106.156 261.252 174.193 354.377C201.886 392.282 298.599 434.438 374.901 458.133C440.387 487.049 449.079 485.619 460.372 479.82C470.266 474.739 436.134 428.792 438.26 422.414C443.788 421.138 444.678 421.568 447.615 418.161C468.877 393.498 426.779 303.775 392.336 255.724C371.074 224.257 345.242 204.53 328.976 193.215C289.855 166 254.561 171.528 237.977 183.009C232.874 183.86 232.043 173.654 252.435 154.519C314.518 96.2613 246.907 -8.76971 174.193 0.585353Z" fill="#4E6A85"/>
<path d="M337.905 294.845C286.06 267.178 123.589 237.014 191.626 330.139C219.319 368.044 298.598 434.437 374.9 458.133C440.386 487.049 396.587 411.358 396.587 411.358C396.587 411.358 382.852 318.83 337.905 294.845Z" fill="#BDC5CC"/>
<path d="M134.22 41.8331C140.457 32.1946 167.643 6.7091 199.28 5.68855C226.596 4.8074 197.973 18.022 174.225 25.2978C198.468 21.013 246.645 20.9405 231.173 23.5482C219.245 25.5585 212.96 28.5884 203.439 29.4001C225.022 32.2979 251.972 39.634 255.411 46.5106C255.411 46.5106 248.897 48.2012 240.11 47.7833C251.582 52.2076 262.997 59.8036 266.041 72.4497C238.402 49.4873 235 49.062 206.084 48.2116L134.22 41.8331Z" fill="#C2D8EE"/>
<path d="M103.027 67.4676C103.235 65.2068 103.179 64.7956 103.179 62.6694C103.179 60.9685 103.179 62.2442 103.604 59.2676C105.879 59.7069 105.409 56.6107 106.292 55.3868C108.192 52.7536 110.3 50.3087 112.746 48.1834C115.875 45.465 118.568 45.6451 120.851 49.0698C122.433 51.4434 123.64 51.5269 125.441 49.1231C125.876 48.5973 126.135 48.3069 126.592 47.8041C127.473 46.9005 127.909 46.1162 128.899 45.1747C131.057 43.1217 135.351 41.1059 135.351 41.1059C135.351 41.1059 153.888 25.7589 168.082 25.2492C175.564 24.9805 180.187 25.2667 187.8 26.5248C194.615 27.6512 199.47 28.1537 204.857 32.4781C208.185 35.1494 209.984 36.1892 211.432 39.7255C214.284 46.6913 208.904 52.4871 204.857 57.844C203.408 59.7635 201.785 61.5587 200.502 63.5978C198.47 66.8269 198.751 67.5988 202.406 68.4554C206.157 69.3344 209.706 70.7319 213.128 72.441C219.008 75.3779 220.787 80.8223 218.153 87.0243C215.959 92.1911 210.969 96.0633 205.115 100.429C192.736 109.662 182.657 110.132 167.345 112.139C157.185 113.471 149.737 112.82 141.111 112.602C135.981 112.473 131.087 111.182 126.102 108.967C124.415 106.822 125.542 105.254 126.51 103.681C128.809 99.9468 131.554 96.5172 133.909 92.8198C135.737 89.9511 134.221 87.3327 134.221 87.3327C134.221 87.3327 133.963 84.355 133.349 83.1192C130.863 77.8297 126.09 75.4366 121.923 72.3901C120.449 71.3127 118.868 70.3538 117.477 69.1987C113.871 66.2043 110.219 64.5119 105.76 67.4823C105.078 67.9366 104.133 67.8629 103.027 67.4676Z" fill="#F3F5E5"/>
<path d="M124.441 108.169C115.936 112.591 47.4741 122.201 14.3062 126.454L135.071 87.3326C134.93 92.4354 132.945 103.747 124.441 108.169Z" fill="#EC980A"/>
<path d="M117.212 67.3471C132.18 76.532 135.355 84.498 135.072 87.3329C115.511 99.6645 7.50261 128.58 2.82508 128.58C-0.916946 128.58 -0.151532 125.745 0.698927 124.328C23.9684 107.976 69.1609 83.931 96.8008 70.7489C106.156 64.3705 113.313 64.9543 117.212 67.3471Z" fill="#84AFD9"/>
<path d="M176.452 75.1043C168.303 80.6631 159.712 83.3495 149.834 81.5803C149.491 81.3246 149.407 81.1539 149.136 80.7688C148.754 80.5628 148.561 80.5712 148.308 80.2954C146.217 77.6727 144.187 75.3339 142.016 72.7449C139.582 68.8023 139.75 64.9806 141.416 60.7411C141.696 60.0848 141.837 59.7748 142.084 59.2321C143.481 57.7841 144.165 59.1051 144.976 59.7073C145.86 60.3635 146.693 60.7698 147.543 59.7328C148.116 59.0348 148.441 58.1392 147.88 57.4021C147.135 56.4236 146.395 57.3964 145.683 57.6918C144.627 58.1297 143.482 58.88 143.472 56.6176C152.922 44.7984 170.383 45.5999 177.048 58.0325C180.012 63.5631 179.202 69.2184 176.452 75.1043Z" fill="#0B3F6E"/>
<circle cx="149.207" cy="61.0141" r="7.22891" fill="white"/>
<path d="M416.999 447.077C261.535 393.668 236.702 247.219 288.155 210.649C308.986 206.351 357.585 254.503 378.172 276.135C384.061 282.322 384.191 281.785 386.383 286.765C388.402 291.352 388.572 295.007 389.039 299.097C402.148 413.917 420.512 402.855 439.537 434.745C456.971 455.157 432.733 452.482 416.999 447.077Z" fill="#39719E"/>
<path d="M439.536 434.745C456.97 455.156 432.732 452.482 416.999 447.077C357.64 426.685 317.325 392.728 293.029 356.503C292.904 356.316 293.158 356.303 293.729 356.383L321.712 351.571L331.953 345.607C334.293 346.092 336.483 346.266 338.504 346.224L354.065 340.77C354.065 340.77 368.523 341.62 372.775 333.115C385.532 339.069 392.134 323.408 392.83 328.013C405.57 412.23 422.281 405.822 439.536 434.745Z" fill="#D5DBDA"/>
</svg>
